<?xml version="1.0" encoding="UTF-8"?>
<!DOCTYPE svg PUBLIC "-//W3C//DTD SVG 1.1//EN" "http://www.w3.org/Graphics/SVG/1.1/DTD/svg11.dtd">
<svg xmlns="http://www.w3.org/2000/svg" version="1.1" width="525px" height="475px" style="shape-rendering:geometricPrecision; text-rendering:geometricPrecision; image-rendering:optimizeQuality; fill-rule:evenodd; clip-rule:evenodd" xmlns:xlink="http://www.w3.org/1999/xlink">
<g><path style="opacity:0.006" fill="#000000" d="M 222.5,185.5 C 223.601,184.402 224.934,184.235 226.5,185C 225.207,185.49 223.873,185.657 222.5,185.5 Z"/></g>
<g><path style="opacity:0.008" fill="#000000" d="M 228.5,184.5 C 229.833,185.167 229.833,185.167 228.5,184.5 Z"/></g>
<g><path style="opacity:0.006" fill="#000000" d="M 251.5,185.5 C 252.601,184.402 253.934,184.235 255.5,185C 254.207,185.49 252.873,185.657 251.5,185.5 Z"/></g>
<g><path style="opacity:0.009" fill="#000000" d="M 276.5,185.5 C 277.946,184.387 279.613,184.22 281.5,185C 279.866,185.494 278.199,185.66 276.5,185.5 Z"/></g>
<g><path style="opacity:0.004" fill="#000000" d="M 283.5,185.5 C 283.897,184.475 284.563,184.308 285.5,185C 284.906,185.464 284.239,185.631 283.5,185.5 Z"/></g>
<g><path style="opacity:0.008" fill="#000000" d="M 291.5,184.5 C 292.833,185.167 292.833,185.167 291.5,184.5 Z"/></g>
<g><path style="opacity:0.005" fill="#000000" d="M 298.5,185.5 C 296.801,185.66 295.134,185.494 293.5,185C 295.387,184.22 297.054,184.387 298.5,185.5 Z"/></g>
<g><path style="opacity:0.007" fill="#000000" d="M 319.5,185.5 C 321.628,184.371 323.961,184.204 326.5,185C 324.19,185.497 321.857,185.663 319.5,185.5 Z"/></g>
<g><path style="opacity:0.004" fill="#000000" d="M 335.5,184.5 C 336.833,185.167 336.833,185.167 335.5,184.5 Z"/></g>
<g><path style="opacity:0.004" fill="#000000" d="M 339.5,184.5 C 340.833,185.167 340.833,185.167 339.5,184.5 Z"/></g>
<g><path style="opacity:0.005" fill="#000000" d="M 365.5,185.5 C 366.251,184.427 367.251,184.26 368.5,185C 367.552,185.483 366.552,185.649 365.5,185.5 Z"/></g>
<g><path style="opacity:0.004" fill="#000000" d="M 370.5,185.5 C 371.251,184.427 372.251,184.26 373.5,185C 372.552,185.483 371.552,185.649 370.5,185.5 Z"/></g>
<g><path style="opacity:0.004" fill="#000000" d="M 209.5,185.5 C 210.833,186.167 210.833,186.167 209.5,185.5 Z"/></g>
<g><path style="opacity:0.004" fill="#000000" d="M 250.5,186.5 C 249.833,185.167 249.833,185.167 250.5,186.5 Z"/></g>
<g><path style="opacity:0.004" fill="#000000" d="M 328.5,185.5 C 329.833,186.167 329.833,186.167 328.5,185.5 Z"/></g>
<g><path style="opacity:0.816" fill="#0c090a" d="M 209.5,186.5 C 209.932,187.71 210.599,188.71 211.5,189.5C 212.417,192.005 212.417,194.338 211.5,196.5C 208.515,185.484 201.181,180.651 189.5,182C 184.641,184.154 184.475,186.321 189,188.5C 195.907,184.955 201.407,186.455 205.5,193C 204.782,194.987 203.782,196.821 202.5,198.5C 198.878,199.325 195.211,199.825 191.5,200C 186.913,203.102 186.913,205.602 191.5,207.5C 192.584,206.335 193.417,205.002 194,203.5C 194.333,203.833 194.667,204.167 195,204.5C 198.411,203.707 201.911,203.207 205.5,203C 207.609,201.275 209.609,199.442 211.5,197.5C 211.16,199.679 210.16,201.512 208.5,203C 204.389,204.891 200.056,205.891 195.5,206C 194.491,208.172 192.824,209.338 190.5,209.5C 190.158,208.662 189.492,208.328 188.5,208.5C 187.391,207.71 186.058,207.21 184.5,207C 187.474,199.339 193.14,196.005 201.5,197C 204.187,193.697 203.521,191.031 199.5,189C 195.916,188.154 192.583,188.654 189.5,190.5C 181.635,189.714 180.635,186.88 186.5,182C 194.972,178.863 202.639,180.363 209.5,186.5 Z"/></g>
<g><path style="opacity:0.008" fill="#000000" d="M 287.5,187.5 C 288.833,188.167 288.833,188.167 287.5,187.5 Z"/></g>
<g><path style="opacity:0.008" fill="#000000" d="M 329.5,187.5 C 330.239,187.369 330.906,187.536 331.5,188C 330.119,194.02 329.453,193.853 329.5,187.5 Z"/></g>
<g><path style="opacity:0.004" fill="#000000" d="M 211.5,188.5 C 212.833,189.167 212.833,189.167 211.5,188.5 Z"/></g>
<g><path style="opacity:0.004" fill="#000000" d="M 286.5,189.5 C 287.833,190.167 287.833,190.167 286.5,189.5 Z"/></g>
<g><path style="opacity:0.882" fill="#0e0c0c" d="M 60.5,192.5 C 56.8606,191.32 53.6939,192.32 51,195.5C 50.3333,196.833 50.3333,198.167 51,199.5C 53.6988,199.664 56.5321,199.83 59.5,200C 58.1667,200.333 56.8333,200.667 55.5,201C 61.9481,200.384 66.2815,203.051 68.5,209C 67.9444,210.011 67.2778,210.844 66.5,211.5C 65.5084,211.328 64.8417,211.662 64.5,212.5C 63.1667,212.5 61.8333,212.5 60.5,212.5C 59.8902,211.609 59.5569,210.609 59.5,209.5C 62.9491,211.194 64.7824,210.194 65,206.5C 64.0975,205.299 62.9308,204.465 61.5,204C 57.4643,203.272 53.4643,202.439 49.5,201.5C 48.0038,196.442 49.6705,192.608 54.5,190C 58.1547,189.359 61.6547,189.859 65,191.5C 66.6268,191.375 68.1268,190.875 69.5,190C 67.8333,188.667 66.1667,187.333 64.5,186C 57.2938,184.973 50.6271,186.806 44.5,191.5C 50.2981,184.381 57.6314,182.215 66.5,185C 72.2699,189.705 71.4366,192.871 64,194.5C 62.9231,193.571 61.7564,192.904 60.5,192.5 Z"/></g>
<g><path style="opacity:0.08" fill="#0f0c0d" d="M 260.5,195.5 C 261.595,200.784 263.261,205.784 265.5,210.5C 265.328,211.492 265.662,212.158 266.5,212.5C 266.833,216.5 267.167,216.5 267.5,212.5C 269.61,208.498 270.943,204.165 271.5,199.5C 273.242,195.456 274.909,191.289 276.5,187C 279.882,186.176 283.216,186.343 286.5,187.5C 285.336,191.013 284.002,194.346 282.5,197.5C 281.761,194.505 282.428,191.672 284.5,189C 282.098,188.186 279.765,188.353 277.5,189.5C 275.341,195.904 273.008,202.571 270.5,209.5C 270.818,210.647 271.484,211.481 272.5,212C 270.335,213.492 268.502,215.325 267,217.5C 265.116,215.55 263.782,213.216 263,210.5C 261.156,203.635 258.823,196.635 256,189.5C 254.506,188.253 253.006,188.253 251.5,189.5C 248.562,198.803 245.562,208.136 242.5,217.5C 239.45,218.077 237.45,216.91 236.5,214C 236.493,212.417 236.826,210.751 237.5,209C 235.655,206.149 234.489,202.982 234,199.5C 232.242,198.531 231.742,197.364 232.5,196C 231.745,193.825 230.912,191.659 230,189.5C 227.941,189.554 225.774,189.387 223.5,189C 228.468,201.916 232.968,214.75 237,227.5C 239.796,228.679 242.629,228.679 245.5,227.5C 245.586,228.496 245.252,229.329 244.5,230C 241.773,230.818 239.106,230.652 236.5,229.5C 233.668,221.655 230.668,213.988 227.5,206.5C 225.661,199.817 223.328,193.317 220.5,187C 224.152,186.501 227.818,186.335 231.5,186.5C 232.928,192.784 234.928,198.784 237.5,204.5C 238.687,206.905 240.187,209.239 242,211.5C 242.483,210.552 242.649,209.552 242.5,208.5C 243.404,207.791 243.737,206.791 243.5,205.5C 244.738,203.786 245.405,201.786 245.5,199.5C 247.074,197.898 247.741,195.898 247.5,193.5C 248.736,191.351 249.736,189.018 250.5,186.5C 252.792,186.756 254.959,186.423 257,185.5C 257.877,190.004 259.044,193.337 260.5,195.5 Z M 239.5,211.5 C 241.273,212.314 241.773,213.648 241,215.5C 240.209,214.255 239.709,212.922 239.5,211.5 Z M 254.5,208.5 C 253.833,209.167 253.167,209.833 252.5,210.5C 252.491,208.692 252.991,207.025 254,205.5C 254.483,206.448 254.649,207.448 254.5,208.5 Z"/></g>
<g><path style="opacity:0.004" fill="#000000" d="M 220.5,191.5 C 221.833,192.167 221.833,192.167 220.5,191.5 Z"/></g>
<g><path style="opacity:0.412" fill="#090708" d="M 344.5,189.5 C 341.498,188.357 338.498,188.357 335.5,189.5C 337.798,193.104 339.798,196.77 341.5,200.5C 338.168,196.483 335.168,192.15 332.5,187.5C 336.167,186.167 339.833,186.167 343.5,187.5C 343.863,188.183 344.196,188.85 344.5,189.5 Z"/></g>
<g><path style="opacity:0.004" fill="#000000" d="M 60.5,192.5 C 59.8333,193.167 59.8333,193.167 60.5,192.5 Z"/></g>
<g><path style="opacity:1" fill="#221e1f" d="M 211.5,196.5 C 211.5,196.833 211.5,197.167 211.5,197.5C 209.609,199.442 207.609,201.275 205.5,203C 201.911,203.207 198.411,203.707 195,204.5C 194.667,204.167 194.333,203.833 194,203.5C 193.417,205.002 192.584,206.335 191.5,207.5C 186.913,205.602 186.913,203.102 191.5,200C 195.211,199.825 198.878,199.325 202.5,198.5C 203.782,196.821 204.782,194.987 205.5,193C 201.407,186.455 195.907,184.955 189,188.5C 184.475,186.321 184.641,184.154 189.5,182C 201.181,180.651 208.515,185.484 211.5,196.5 Z"/></g>
<g><path style="opacity:0.004" fill="#000000" d="M 329.5,193.5 C 330.598,194.601 330.765,195.934 330,197.5C 329.51,196.207 329.343,194.873 329.5,193.5 Z"/></g>
<g><path style="opacity:0.004" fill="#000000" d="M 51.5,196.5 C 52.8333,197.167 52.8333,197.167 51.5,196.5 Z"/></g>
<g><path style="opacity:1" fill="#211d1e" d="M 341.5,200.5 C 339.798,196.77 337.798,193.104 335.5,189.5C 338.498,188.357 341.498,188.357 344.5,189.5C 344.666,194.47 347,198.47 351.5,201.5C 351.833,201.5 352.167,201.5 352.5,201.5C 353.167,202.833 353.833,202.833 354.5,201.5C 354.833,201.5 355.167,201.5 355.5,201.5C 359.57,198.229 362.57,194.063 364.5,189C 366.433,188.749 368.266,188.249 370,187.5C 370.75,188.126 371.584,188.626 372.5,189C 367.529,196.377 362.362,203.544 357,210.5C 356.196,215.751 356.363,220.918 357.5,226C 356.197,229.044 353.864,230.211 350.5,229.5C 350.33,228.178 350.663,227.011 351.5,226C 350.693,220.917 350.193,215.75 350,210.5C 347.25,206.931 344.416,203.597 341.5,200.5 Z"/></g>
<g><path style="opacity:1" fill="#100e0f" d="M 344.5,189.5 C 347.335,193.164 349.668,197.164 351.5,201.5C 347,198.47 344.666,194.47 344.5,189.5 Z"/></g>
<g><path style="opacity:0.004" fill="#000000" d="M 361.5,190.5 C 360.833,189.167 360.833,189.167 361.5,190.5 Z"/></g>
<g><path style="opacity:0.008" fill="#000000" d="M 355.5,199.5 C 354.833,198.167 354.833,198.167 355.5,199.5 Z"/></g>
<g><path style="opacity:1" fill="#221e1f" d="M 59.5,209.5 C 59.3893,208.883 59.056,208.383 58.5,208C 55.1667,207.667 51.8333,207.333 48.5,207C 46.375,203.918 44.375,200.751 42.5,197.5C 43.7472,195.677 44.4139,193.677 44.5,191.5C 50.6271,186.806 57.2938,184.973 64.5,186C 66.1667,187.333 67.8333,188.667 69.5,190C 68.1268,190.875 66.6268,191.375 65,191.5C 61.6547,189.859 58.1547,189.359 54.5,190C 49.6705,192.608 48.0038,196.442 49.5,201.5C 53.4643,202.439 57.4643,203.272 61.5,204C 62.9308,204.465 64.0975,205.299 65,206.5C 64.7824,210.194 62.9491,211.194 59.5,209.5 Z"/></g>
<g><path style="opacity:0.01" fill="#000000" d="M 354.5,201.5 C 353.833,201.5 353.167,201.5 352.5,201.5C 352.786,199.067 353.452,199.067 354.5,201.5 Z"/></g>
<g><path style="opacity:0.004" fill="#000000" d="M 41.5,200.5 C 41.631,201.239 41.4643,201.906 41,202.5C 40.3083,201.563 40.475,200.897 41.5,200.5 Z"/></g>
<g><path style="opacity:0.004" fill="#000000" d="M 281.5,202.5 C 282.833,203.167 282.833,203.167 281.5,202.5 Z"/></g>
<g><path style="opacity:0.004" fill="#000000" d="M 43.5,204.5 C 42.8333,205.167 42.8333,205.167 43.5,204.5 Z"/></g>
<g><path style="opacity:0.004" fill="#000000" d="M 227.5,206.5 C 227.631,207.239 227.464,207.906 227,208.5C 226.308,207.563 226.475,206.897 227.5,206.5 Z"/></g>
<g><path style="opacity:0.592" fill="#0a0809" d="M 44.5,191.5 C 44.4139,193.677 43.7472,195.677 42.5,197.5C 44.375,200.751 46.375,203.918 48.5,207C 51.8333,207.333 55.1667,207.667 58.5,208C 59.056,208.383 59.3893,208.883 59.5,209.5C 55.5483,208.804 51.5483,208.304 47.5,208C 45.9733,206.968 44.64,205.801 43.5,204.5C 43.0113,203.005 42.3446,201.671 41.5,200.5C 41.1376,196.919 42.1376,193.919 44.5,191.5 Z"/></g>
<g><path style="opacity:0.573" fill="#0d0b0c" d="M 359.5,211.5 C 358.51,217.645 358.177,223.978 358.5,230.5C 355.167,230.5 351.833,230.5 348.5,230.5C 348.823,223.978 348.49,217.645 347.5,211.5C 345.5,207.833 343.5,204.167 341.5,200.5C 344.416,203.597 347.25,206.931 350,210.5C 350.193,215.75 350.693,220.917 351.5,226C 350.663,227.011 350.33,228.178 350.5,229.5C 353.864,230.211 356.197,229.044 357.5,226C 356.363,220.918 356.196,215.751 357,210.5C 362.362,203.544 367.529,196.377 372.5,189C 371.584,188.626 370.75,188.126 370,187.5C 368.266,188.249 366.433,188.749 364.5,189C 362.57,194.063 359.57,198.229 355.5,201.5C 355.5,200.833 355.5,200.167 355.5,199.5C 357.735,196.709 359.735,193.709 361.5,190.5C 362.364,189.312 363.364,188.145 364.5,187C 368.167,186.333 371.833,186.333 375.5,187C 369.918,195.067 364.584,203.234 359.5,211.5 Z"/></g>
<g><path style="opacity:0.004" fill="#000000" d="M 70.5,211.5 C 71.8333,212.167 71.8333,212.167 70.5,211.5 Z"/></g>
<g><path style="opacity:0.684" fill="#120f10" d="M 298.5,185.5 C 299.49,191.645 299.823,197.978 299.5,204.5C 306.167,204.5 312.833,204.5 319.5,204.5C 319.5,198.5 319.5,192.5 319.5,186.5C 322.5,186.5 325.5,186.5 328.5,186.5C 328.5,201.167 328.5,215.833 328.5,230.5C 325.5,230.5 322.5,230.5 319.5,230.5C 319.5,224.833 319.5,219.167 319.5,213.5C 312.833,213.5 306.167,213.5 299.5,213.5C 299.5,219.167 299.5,224.833 299.5,230.5C 296.5,230.5 293.5,230.5 290.5,230.5C 290.5,215.833 290.5,201.167 290.5,186.5C 293.385,186.806 296.052,186.473 298.5,185.5 Z"/></g>
<g><path style="opacity:1" fill="#221e1f" d="M 292.5,188.5 C 294.527,188.338 296.527,188.505 298.5,189C 297.771,194.273 297.771,199.94 298.5,206C 303.544,206.02 308.711,206.52 314,207.5C 316.381,206.565 318.881,206.232 321.5,206.5C 321.171,200.794 321.505,195.128 322.5,189.5C 323.736,188.754 325.07,188.421 326.5,188.5C 326.5,201.833 326.5,215.167 326.5,228.5C 324.833,228.5 323.167,228.5 321.5,228.5C 321.666,223.489 321.499,218.489 321,213.5C 320.5,213 320,212.5 319.5,212C 313.917,211.809 308.417,211.309 303,210.5C 301.108,211.13 299.441,212.13 298,213.5C 297.976,218.335 297.809,223.335 297.5,228.5C 295.278,228.822 293.444,228.155 292,226.5C 291.188,213.758 291.354,201.091 292.5,188.5 Z"/></g>
<g><path style="opacity:0.011" fill="#000000" d="M 316.5,201.5 C 317.376,201.369 318.043,201.702 318.5,202.5C 317.277,203.614 315.944,203.781 314.5,203C 315.416,202.722 316.082,202.222 316.5,201.5 Z"/></g>
<g><path style="opacity:0.01" fill="#000000" d="M 300.5,200.5 C 301.267,201.172 301.934,202.005 302.5,203C 300.939,203.188 300.272,202.355 300.5,200.5 Z"/></g>
<g><path style="opacity:0.004" fill="#000000" d="M 347.5,211.5 C 346.833,212.167 346.833,212.167 347.5,211.5 Z"/></g>
<g><path style="opacity:0.004" fill="#000000" d="M 359.5,211.5 C 360.833,212.167 360.833,212.167 359.5,211.5 Z"/></g>
<g><path style="opacity:0.006" fill="#000000" d="M 60.5,212.5 C 61.1667,213.167 61.8333,213.833 62.5,214.5C 61.71,215.609 61.21,216.942 61,218.5C 60.654,216.782 60.154,215.115 59.5,213.5C 59.6236,212.893 59.9569,212.56 60.5,212.5 Z"/></g>
<g><path style="opacity:0.563" fill="#0f0d0e" d="M 129.5,208.5 C 136.661,206.948 140.994,209.948 142.5,217.5C 140.73,216.144 139.397,214.311 138.5,212C 135.928,209.713 132.928,208.547 129.5,208.5 Z"/></g>
<g><path style="opacity:1" fill="#221e1f" d="M 129.5,208.5 C 132.928,208.547 135.928,209.713 138.5,212C 139.397,214.311 140.73,216.144 142.5,217.5C 143.742,219.611 143.742,221.611 142.5,223.5C 140.5,226.821 138.5,230.154 136.5,233.5C 133.29,233.249 130.29,233.249 127.5,233.5C 127.141,231.629 126.141,230.129 124.5,229C 124.833,228.667 125.167,228.333 125.5,228C 124.167,227.333 123.167,226.333 122.5,225C 123.331,221.207 124.164,217.373 125,213.5C 126.758,211.917 128.258,210.25 129.5,208.5 Z"/></g>
<g><path style="opacity:0.011" fill="#000000" d="M 300.5,214.5 C 301.552,214.351 302.552,214.517 303.5,215C 302.333,215.5 301.5,216.333 301,217.5C 300.517,216.552 300.351,215.552 300.5,214.5 Z"/></g>
<g><path style="opacity:0.008" fill="#000000" d="M 316.5,215.5 C 316.897,214.475 317.563,214.308 318.5,215C 317.906,215.464 317.239,215.631 316.5,215.5 Z"/></g>
<g><path style="opacity:0.008" fill="#000000" d="M 76.5,215.5 C 77.8333,216.167 77.8333,216.167 76.5,215.5 Z"/></g>
<g><path style="opacity:0.016" fill="#000000" d="M 179.5,217.5 C 179.897,216.475 180.563,216.308 181.5,217C 180.906,217.464 180.239,217.631 179.5,217.5 Z"/></g>
<g><path style="opacity:0.004" fill="#000000" d="M 177.5,218.5 C 176.833,217.167 176.833,217.167 177.5,218.5 Z"/></g>
<g><path style="opacity:0.855" fill="#0a0708" d="M 66.5,211.5 C 67.8333,211.833 69.1667,212.167 70.5,212.5C 72.4667,215.012 72.8,217.679 71.5,220.5C 70.8333,220.5 70.5,220.833 70.5,221.5C 69.5084,221.328 68.8417,221.662 68.5,222.5C 63.837,221.836 61.837,219.17 62.5,214.5C 63.5,214.167 64.1667,213.5 64.5,212.5C 65.4916,212.672 66.1583,212.338 66.5,211.5 Z"/></g>
<g><path style="opacity:1" fill="#1e1b1c" d="M 66.5,213.5 C 71.4844,215.142 71.8178,217.475 67.5,220.5C 66.8333,220.167 66.1667,219.833 65.5,219.5C 65.4626,217.678 65.796,215.678 66.5,213.5 Z"/></g>
<g><path style="opacity:0.976" fill="#100d0f" d="M 129.5,208.5 C 128.258,210.25 126.758,211.917 125,213.5C 124.164,217.373 123.331,221.207 122.5,225C 123.167,226.333 124.167,227.333 125.5,228C 125.167,228.333 124.833,228.667 124.5,229C 126.141,230.129 127.141,231.629 127.5,233.5C 126.833,233.5 126.167,233.5 125.5,233.5C 125.5,232.833 125.167,232.5 124.5,232.5C 124.573,230.973 123.906,229.973 122.5,229.5C 122.737,228.209 122.404,227.209 121.5,226.5C 121.234,222.395 121.734,218.395 123,214.5C 124.406,211.591 126.572,209.591 129.5,208.5 Z"/></g>
<g><path style="opacity:0.012" fill="#000000" d="M 188.5,218.5 C 190.048,218.821 190.715,219.821 190.5,221.5C 190.167,221.5 189.833,221.5 189.5,221.5C 189.5,220.833 189.167,220.5 188.5,220.5C 188.5,219.833 188.5,219.167 188.5,218.5 Z"/></g>
<g><path style="opacity:0.973" fill="#110e0e" d="M 188.5,208.5 C 188.5,208.833 188.5,209.167 188.5,209.5C 189.167,209.5 189.833,209.5 190.5,209.5C 192.183,213.095 191.517,216.095 188.5,218.5C 184.714,218.638 184.714,219.305 188.5,220.5C 189.167,220.5 189.5,220.833 189.5,221.5C 189.5,222.167 189.833,222.5 190.5,222.5C 191.73,224.297 192.396,226.297 192.5,228.5C 190.732,226.492 189.066,224.326 187.5,222C 180.722,219.664 175.055,221.164 170.5,226.5C 172.124,223.21 174.457,220.543 177.5,218.5C 179.857,218.663 182.19,218.497 184.5,218C 180.943,215.419 180.61,212.419 183.5,209C 185.134,208.506 186.801,208.34 188.5,208.5 Z"/></g>
<g><path style="opacity:1" fill="#201d1e" d="M 188.5,209.5 C 191.157,214.014 189.823,216.18 184.5,216C 183.921,214.092 183.921,212.425 184.5,211C 185.563,209.812 186.897,209.312 188.5,209.5 Z"/></g>
<g><path style="opacity:1" fill="#211e1f" d="M 282.5,197.5 C 280.187,199.209 278.687,201.543 278,204.5C 275.204,212.421 272.704,220.421 270.5,228.5C 268.167,228.5 265.833,228.5 263.5,228.5C 262.358,224.004 260.692,219.671 258.5,215.5C 258.709,214.914 259.043,214.414 259.5,214C 257.424,210.143 255.424,206.309 253.5,202.5C 252.667,203.5 251.833,204.5 251,205.5C 249.663,212.49 247.497,219.156 244.5,225.5C 244.624,226.107 244.957,226.44 245.5,226.5C 245.5,226.833 245.5,227.167 245.5,227.5C 242.629,228.679 239.796,228.679 237,227.5C 232.968,214.75 228.468,201.916 223.5,189C 225.774,189.387 227.941,189.554 230,189.5C 230.912,191.659 231.745,193.825 232.5,196C 231.742,197.364 232.242,198.531 234,199.5C 234.489,202.982 235.655,206.149 237.5,209C 236.826,210.751 236.493,212.417 236.5,214C 237.45,216.91 239.45,218.077 242.5,217.5C 245.562,208.136 248.562,198.803 251.5,189.5C 253.006,188.253 254.506,188.253 256,189.5C 258.823,196.635 261.156,203.635 263,210.5C 263.782,213.216 265.116,215.55 267,217.5C 268.502,215.325 270.335,213.492 272.5,212C 271.484,211.481 270.818,210.647 270.5,209.5C 273.008,202.571 275.341,195.904 277.5,189.5C 279.765,188.353 282.098,188.186 284.5,189C 282.428,191.672 281.761,194.505 282.5,197.5 Z M 239.5,211.5 C 239.709,212.922 240.209,214.255 241,215.5C 241.773,213.648 241.273,212.314 239.5,211.5 Z M 254.5,208.5 C 253.833,209.167 253.167,209.833 252.5,210.5C 252.491,208.692 252.991,207.025 254,205.5C 254.483,206.448 254.649,207.448 254.5,208.5 Z"/></g>
<g><path style="opacity:0.004" fill="#000000" d="M 242.5,208.5 C 241.833,207.167 241.833,207.167 242.5,208.5 Z"/></g>
<g><path style="opacity:0.008" fill="#000000" d="M 243.5,205.5 C 242.475,205.103 242.308,204.437 243,203.5C 243.464,204.094 243.631,204.761 243.5,205.5 Z"/></g>
<g><path style="opacity:0.01" fill="#000000" d="M 237.5,204.5 C 237.369,203.761 237.536,203.094 238,202.5C 238.692,203.437 238.525,204.103 237.5,204.5 Z"/></g>
<g><path style="opacity:0.004" fill="#000000" d="M 271.5,199.5 C 270.833,198.167 270.833,198.167 271.5,199.5 Z"/></g>
<g><path style="opacity:0.004" fill="#000000" d="M 245.5,199.5 C 244.833,198.167 244.833,198.167 245.5,199.5 Z"/></g>
<g><path style="opacity:0.008" fill="#000000" d="M 261.5,196.5 C 262.833,197.167 262.833,197.167 261.5,196.5 Z"/></g>
<g><path style="opacity:0.004" fill="#000000" d="M 245.5,195.5 C 246.833,196.167 246.833,196.167 245.5,195.5 Z"/></g>
<g><path style="opacity:0.004" fill="#000000" d="M 260.5,194.5 C 261.833,195.167 261.833,195.167 260.5,194.5 Z"/></g>
<g><path style="opacity:0.004" fill="#000000" d="M 247.5,193.5 C 246.833,192.167 246.833,192.167 247.5,193.5 Z"/></g>
<g><path style="opacity:1" fill="#221e1f" d="M 192.5,228.5 C 191.716,232.466 190.883,236.466 190,240.5C 184,248.5 178,248.5 172,240.5C 171.668,237.494 170.834,234.66 169.5,232C 170.406,230.301 170.739,228.467 170.5,226.5C 175.055,221.164 180.722,219.664 187.5,222C 189.066,224.326 190.732,226.492 192.5,228.5 Z"/></g>
<g><path style="opacity:0.004" fill="#000000" d="M 190.5,221.5 C 191.833,222.167 191.833,222.167 190.5,221.5 Z"/></g>
<g><path style="opacity:0.009" fill="#000000" d="M 119.5,222.5 C 120.573,223.251 120.74,224.251 120,225.5C 119.517,224.552 119.351,223.552 119.5,222.5 Z"/></g>
<g><path style="opacity:0.956" fill="#010101" d="M 169.5,240.5 C 169.427,242.027 170.094,243.027 171.5,243.5C 171.5,245.5 172.5,246.5 174.5,246.5C 174.842,247.338 175.508,247.672 176.5,247.5C 177.209,248.404 178.209,248.737 179.5,248.5C 180.167,249.833 180.833,249.833 181.5,248.5C 183.099,248.768 184.432,248.434 185.5,247.5C 186.492,247.672 187.158,247.338 187.5,246.5C 188.167,246.5 188.5,246.167 188.5,245.5C 189.167,245.5 189.5,245.167 189.5,244.5C 190.167,244.5 190.5,244.167 190.5,243.5C 192.762,242.655 193.429,241.322 192.5,239.5C 193.734,241.373 195.734,242.706 198.5,243.5C 207.908,262.059 213.242,281.725 214.5,302.5C 214.414,309.683 213.247,316.683 211,323.5C 210.501,329.491 210.334,335.491 210.5,341.5C 195.833,341.5 181.167,341.5 166.5,341.5C 166.088,332.001 167.088,322.667 169.5,313.5C 170.404,312.791 170.737,311.791 170.5,310.5C 171.833,309.167 171.833,307.833 170.5,306.5C 169.216,290.113 167.383,273.78 165,257.5C 161.998,255.829 158.831,254.996 155.5,255C 158.793,283.727 161.46,312.561 163.5,341.5C 147.122,342.471 130.789,342.138 114.5,340.5C 115.662,323.672 115.828,306.672 115,289.5C 113.144,275.945 111.978,262.278 111.5,248.5C 110.893,248.624 110.56,248.957 110.5,249.5C 108.326,249.75 106.659,250.75 105.5,252.5C 104.661,253.641 103.994,254.974 103.5,256.5C 104.91,284.818 106.243,313.152 107.5,341.5C 91.1667,341.5 74.8333,341.5 58.5,341.5C 58.9793,335.145 59.6459,328.812 60.5,322.5C 61.8333,321.5 61.8333,320.5 60.5,319.5C 60.0719,316.215 59.0719,313.215 57.5,310.5C 57.5905,307.848 56.9238,305.515 55.5,303.5C 55.7678,301.901 55.4345,300.568 54.5,299.5C 53.9887,293.951 52.9887,288.617 51.5,283.5C 51.1139,275.387 51.7805,267.387 53.5,259.5C 55.0173,257.538 55.6839,255.205 55.5,252.5C 55.4604,250.571 55.1271,248.738 54.5,247C 56.7243,245.219 59.0577,243.719 61.5,242.5C 63.1993,242.473 64.5326,241.806 65.5,240.5C 68.0569,240.351 70.7235,240.351 73.5,240.5C 73.5,241.167 73.8333,241.5 74.5,241.5C 74.5,242.167 74.8333,242.5 75.5,242.5C 75.5,243.167 75.8333,243.5 76.5,243.5C 77.287,245.104 78.6203,245.771 80.5,245.5C 82.8333,246.833 85.1667,246.833 87.5,245.5C 88.4916,245.672 89.1583,245.338 89.5,244.5C 91.8333,244.167 93.1667,242.833 93.5,240.5C 95.1042,239.713 95.7709,238.38 95.5,236.5C 96.4614,234.735 96.7947,232.735 96.5,230.5C 105.057,230.329 113.39,228.995 121.5,226.5C 121.263,227.791 121.596,228.791 122.5,229.5C 122.427,231.027 123.094,232.027 124.5,232.5C 125.167,232.5 125.5,232.833 125.5,233.5C 128.204,236.303 131.537,237.137 135.5,236C 136.942,235.623 137.942,234.79 138.5,233.5C 139.167,233.5 139.5,233.167 139.5,232.5C 140.167,232.5 140.5,232.167 140.5,231.5C 142.104,230.713 142.771,229.38 142.5,227.5C 143.404,226.791 143.737,225.791 143.5,224.5C 145.262,224.357 146.929,224.691 148.5,225.5C 150.984,228.484 153.65,231.318 156.5,234C 160.167,235 163.833,236 167.5,237C 168.085,238.302 168.751,239.469 169.5,240.5 Z M 142.5,227.5 C 142.771,229.38 142.104,230.713 140.5,231.5C 140.66,229.847 141.326,228.514 142.5,227.5 Z M 122.5,229.5 C 123.906,229.973 124.573,230.973 124.5,232.5C 123.094,232.027 122.427,231.027 122.5,229.5 Z M 125.5,233.5 C 126.167,233.5 126.833,233.5 127.5,233.5C 130.5,236.167 133.5,236.167 136.5,233.5C 137.167,233.5 137.833,233.5 138.5,233.5C 137.942,234.79 136.942,235.623 135.5,236C 131.537,237.137 128.204,236.303 125.5,233.5 Z M 192.5,239.5 C 193.429,241.322 192.762,242.655 190.5,243.5C 190.66,241.847 191.326,240.514 192.5,239.5 Z M 93.5,240.5 C 93.1667,242.833 91.8333,244.167 89.5,244.5C 90.5,242.833 91.8333,241.5 93.5,240.5 Z M 169.5,240.5 C 170.906,240.973 171.573,241.973 171.5,243.5C 170.094,243.027 169.427,242.027 169.5,240.5 Z M 76.5,243.5 C 78.153,243.66 79.4863,244.326 80.5,245.5C 78.6203,245.771 77.287,245.104 76.5,243.5 Z M 171.5,243.5 C 172.833,244.167 173.833,245.167 174.5,246.5C 172.5,246.5 171.5,245.5 171.5,243.5 Z M 137.5,327.5 C 138.693,329.97 139.193,332.636 139,335.5C 137.748,332.986 137.248,330.32 137.5,327.5 Z"/></g>
<g><path style="opacity:0.004" fill="#000000" d="M 273.5,224.5 C 274.833,225.167 274.833,225.167 273.5,224.5 Z"/></g>
<g><path style="opacity:0.008" fill="#000000" d="M 261.5,227.5 C 260.833,228.167 260.833,228.167 261.5,227.5 Z"/></g>
<g><path style="opacity:0.008" fill="#000000" d="M 96.5,229.5 C 96.8966,228.475 97.5632,228.308 98.5,229C 97.9056,229.464 97.2389,229.631 96.5,229.5 Z"/></g>
<g><path style="opacity:0.382" fill="#0c0a0b" d="M 282.5,197.5 C 281.962,199.117 281.629,200.784 281.5,202.5C 278.266,209.529 275.599,216.862 273.5,224.5C 272.262,226.214 271.595,228.214 271.5,230.5C 268.5,230.5 265.5,230.5 262.5,230.5C 262.737,229.209 262.404,228.209 261.5,227.5C 261.672,226.508 261.338,225.842 260.5,225.5C 259.307,221.089 257.807,216.756 256,212.5C 254.913,214.932 254.413,214.598 254.5,211.5C 255.833,210.5 255.833,209.5 254.5,208.5C 254.649,207.448 254.483,206.448 254,205.5C 252.991,207.025 252.491,208.692 252.5,210.5C 250.796,213.939 249.462,217.605 248.5,221.5C 247.687,223.261 246.687,224.928 245.5,226.5C 244.957,226.44 244.624,226.107 244.5,225.5C 247.497,219.156 249.663,212.49 251,205.5C 251.833,204.5 252.667,203.5 253.5,202.5C 255.424,206.309 257.424,210.143 259.5,214C 259.043,214.414 258.709,214.914 258.5,215.5C 260.692,219.671 262.358,224.004 263.5,228.5C 265.833,228.5 268.167,228.5 270.5,228.5C 272.704,220.421 275.204,212.421 278,204.5C 278.687,201.543 280.187,199.209 282.5,197.5 Z M 254.5,208.5 C 253.833,209.167 253.167,209.833 252.5,210.5C 252.491,208.692 252.991,207.025 254,205.5C 254.483,206.448 254.649,207.448 254.5,208.5 Z"/></g>
<g><path style="opacity:0.004" fill="#000000" d="M 260.5,225.5 C 259.833,226.167 259.833,226.167 260.5,225.5 Z"/></g>
<g><path style="opacity:0.004" fill="#000000" d="M 248.5,221.5 C 249.833,222.167 249.833,222.167 248.5,221.5 Z"/></g>
<g><path style="opacity:0.004" fill="#000000" d="M 255.5,215.5 C 256.833,216.167 256.833,216.167 255.5,215.5 Z"/></g>
<g><path style="opacity:0.008" fill="#000000" d="M 267.5,212.5 C 267.167,212.5 266.833,212.5 266.5,212.5C 266.672,211.508 266.338,210.842 265.5,210.5C 265.369,209.624 265.702,208.957 266.5,208.5C 267.429,209.689 267.762,211.022 267.5,212.5 Z"/></g>
<g><path style="opacity:0.012" fill="#000000" d="M 254.5,208.5 C 254.5,209.5 254.5,210.5 254.5,211.5C 253.075,213.031 252.409,212.698 252.5,210.5C 253.167,209.833 253.833,209.167 254.5,208.5 Z"/></g>
<g><path style="opacity:0.004" fill="#000000" d="M 268.5,204.5 C 269.833,205.167 269.833,205.167 268.5,204.5 Z"/></g>
<g><path style="opacity:0.38" fill="#0f0d0e" d="M 142.5,223.5 C 142.5,224.833 142.5,226.167 142.5,227.5C 141.326,228.514 140.66,229.847 140.5,231.5C 139.833,231.5 139.5,231.833 139.5,232.5C 138.833,232.5 138.5,232.833 138.5,233.5C 137.833,233.5 137.167,233.5 136.5,233.5C 138.5,230.154 140.5,226.821 142.5,223.5 Z"/></g>
<g><path style="opacity:0.004" fill="#000000" d="M 322.5,232.5 C 322.897,231.475 323.563,231.308 324.5,232C 323.906,232.464 323.239,232.631 322.5,232.5 Z"/></g>
<g><path style="opacity:0.004" fill="#000000" d="M 69.5,233.5 C 70.8333,234.167 70.8333,234.167 69.5,233.5 Z"/></g>
<g><path style="opacity:0.957" fill="#100e0e" d="M 136.5,233.5 C 133.5,236.167 130.5,236.167 127.5,233.5C 130.29,233.249 133.29,233.249 136.5,233.5 Z"/></g>
<g><path style="opacity:0.004" fill="#000000" d="M 166.5,234.5 C 167.833,235.167 167.833,235.167 166.5,234.5 Z"/></g>
<g><path style="opacity:0.004" fill="#000000" d="M 243.5,238.5 C 244.601,237.402 245.934,237.235 247.5,238C 246.207,238.49 244.873,238.657 243.5,238.5 Z"/></g>
<g><path style="opacity:0.006" fill="#000000" d="M 327.5,238.5 C 329.628,237.371 331.961,237.204 334.5,238C 332.19,238.497 329.857,238.663 327.5,238.5 Z"/></g>
<g><path style="opacity:0.004" fill="#000000" d="M 421.5,238.5 C 420.761,238.631 420.094,238.464 419.5,238C 420.437,237.308 421.103,237.475 421.5,238.5 Z"/></g>
<g><path style="opacity:0.007" fill="#000000" d="M 429.5,238.5 C 430.251,237.427 431.251,237.26 432.5,238C 431.552,238.483 430.552,238.649 429.5,238.5 Z"/></g>
<g><path style="opacity:0.012" fill="#000000" d="M 240.5,239.5 C 239.833,238.167 239.833,238.167 240.5,239.5 Z"/></g>
<g><path style="opacity:0.007" fill="#000000" d="M 267.5,239.5 C 269.628,238.371 271.961,238.204 274.5,239C 272.19,239.497 269.857,239.663 267.5,239.5 Z"/></g>
<g><path style="opacity:0.007" fill="#000000" d="M 295.5,239.5 C 298.304,238.362 301.304,238.195 304.5,239C 301.518,239.498 298.518,239.665 295.5,239.5 Z"/></g>
<g><path style="opacity:0.004" fill="#000000" d="M 450.5,239.5 C 450.897,238.475 451.563,238.308 452.5,239C 451.906,239.464 451.239,239.631 450.5,239.5 Z"/></g>
<g><path style="opacity:0.004" fill="#000000" d="M 65.5,239.5 C 66.8333,240.167 66.8333,240.167 65.5,239.5 Z"/></g>
<g><path style="opacity:0.004" fill="#000000" d="M 237.5,240.5 C 236.833,239.167 236.833,239.167 237.5,240.5 Z"/></g>
<g><path style="opacity:0.012" fill="#000000" d="M 341.5,239.5 C 342.833,240.167 342.833,240.167 341.5,239.5 Z"/></g>
<g><path style="opacity:0.004" fill="#000000" d="M 371.5,240.5 C 370.761,240.631 370.094,240.464 369.5,240C 370.437,239.308 371.103,239.475 371.5,240.5 Z"/></g>
<g><path style="opacity:0.667" fill="#0d0a0b" d="M 240.5,239.5 C 247.221,238.751 253.554,239.918 259.5,243C 263.675,246.078 263.342,248.578 258.5,250.5C 258.703,248.956 259.37,247.622 260.5,246.5C 254.712,241.831 248.046,240.331 240.5,242C 239.069,242.465 237.903,243.299 237,244.5C 235.493,243.465 233.993,243.632 232.5,245C 221.665,258.223 222.665,270.223 235.5,281C 243.448,284.502 251.448,284.168 259.5,280C 260.946,277.507 260.279,275.673 257.5,274.5C 255.803,275.912 254.136,276.246 252.5,275.5C 252.5,275.167 252.5,274.833 252.5,274.5C 254.153,274.34 255.486,273.674 256.5,272.5C 257.167,272.5 257.833,272.5 258.5,272.5C 259.833,274.5 261.5,276.167 263.5,277.5C 263.443,278.609 263.11,279.609 262.5,280.5C 260.973,280.427 259.973,281.094 259.5,282.5C 250.327,286.728 241.327,286.395 232.5,281.5C 227.989,277.812 224.989,273.145 223.5,267.5C 223.5,264.167 223.5,260.833 223.5,257.5C 225.713,249.183 230.38,243.517 237.5,240.5C 238.791,240.737 239.791,240.404 240.5,239.5 Z"/></g>
<g><path style="opacity:0.008" fill="#000000" d="M 343.5,240.5 C 344.833,241.167 344.833,241.167 343.5,240.5 Z"/></g>
<g><path style="opacity:0.576" fill="#100d0e" d="M 448.5,240.5 C 459.833,240.5 471.167,240.5 482.5,240.5C 482.5,243.5 482.5,246.5 482.5,249.5C 474.5,249.5 466.5,249.5 458.5,249.5C 458.5,252.167 458.5,254.833 458.5,257.5C 466.167,257.5 473.833,257.5 481.5,257.5C 481.5,260.5 481.5,263.5 481.5,266.5C 473.833,266.5 466.167,266.5 458.5,266.5C 458.5,269.167 458.5,271.833 458.5,274.5C 466.5,274.5 474.5,274.5 482.5,274.5C 482.5,277.833 482.5,281.167 482.5,284.5C 471.167,284.5 459.833,284.5 448.5,284.5C 448.5,269.833 448.5,255.167 448.5,240.5 Z"/></g>
<g><path style="opacity:0.008" fill="#000000" d="M 61.5,242.5 C 60.8333,241.167 60.8333,241.167 61.5,242.5 Z"/></g>
<g><path style="opacity:0.004" fill="#000000" d="M 345.5,241.5 C 346.833,242.167 346.833,242.167 345.5,241.5 Z"/></g>
<g><path style="opacity:0.004" fill="#000000" d="M 367.5,242.5 C 366.833,241.167 366.833,241.167 367.5,242.5 Z"/></g>
<g><path style="opacity:0.008" fill="#000000" d="M 412.5,242.5 C 411.833,241.167 411.833,241.167 412.5,242.5 Z"/></g>
<g><path style="opacity:0.004" fill="#000000" d="M 57.5,242.5 C 58.8333,243.167 58.8333,243.167 57.5,242.5 Z"/></g>
<g><path style="opacity:0.438" fill="#0e0c0d" d="M 95.5,236.5 C 94.3263,237.514 93.6596,238.847 93.5,240.5C 91.8333,241.5 90.5,242.833 89.5,244.5C 88.5084,244.328 87.8417,244.662 87.5,245.5C 85.1667,245.5 82.8333,245.5 80.5,245.5C 79.4863,244.326 78.153,243.66 76.5,243.5C 75.8333,243.5 75.5,243.167 75.5,242.5C 74.8333,242.5 74.5,242.167 74.5,241.5C 73.8333,241.5 73.5,241.167 73.5,240.5C 71.5799,234.564 69.9132,228.564 68.5,222.5C 69.4916,222.672 70.1583,222.338 70.5,221.5C 71.1667,221.5 71.5,221.167 71.5,220.5C 72.1174,220.611 72.6174,220.944 73,221.5C 74.451,219.536 76.2843,218.203 78.5,217.5C 86.7406,214.711 92.2406,217.711 95,226.5C 95.4983,229.817 95.665,233.15 95.5,236.5 Z"/></g>
<g><path style="opacity:1" fill="#221e1f" d="M 78.5,217.5 C 86.135,216.193 90.9684,219.193 93,226.5C 95.1566,234.379 92.8233,240.379 86,244.5C 75.5183,242.571 71.185,236.237 73,225.5C 75.2312,223.009 77.0645,220.342 78.5,217.5 Z"/></g>
<g><path style="opacity:0.071" fill="#0d0b0c" d="M 170.5,226.5 C 170.739,228.467 170.406,230.301 169.5,232C 170.834,234.66 171.668,237.494 172,240.5C 178,248.5 184,248.5 190,240.5C 190.883,236.466 191.716,232.466 192.5,228.5C 193.62,232.017 193.62,235.684 192.5,239.5C 191.326,240.514 190.66,241.847 190.5,243.5C 189.833,243.5 189.5,243.833 189.5,244.5C 188.833,244.5 188.5,244.833 188.5,245.5C 187.833,245.5 187.5,245.833 187.5,246.5C 186.508,246.328 185.842,246.662 185.5,247.5C 183.901,247.232 182.568,247.566 181.5,248.5C 180.833,248.5 180.167,248.5 179.5,248.5C 178.791,247.596 177.791,247.263 176.5,247.5C 176.158,246.662 175.492,246.328 174.5,246.5C 173.833,245.167 172.833,244.167 171.5,243.5C 171.573,241.973 170.906,240.973 169.5,240.5C 167.887,235.574 168.22,230.907 170.5,226.5 Z"/></g>
<g><path style="opacity:0.004" fill="#000000" d="M 306.5,244.5 C 307.613,245.946 307.78,247.613 307,249.5C 306.506,247.866 306.34,246.199 306.5,244.5 Z"/></g>
<g><path style="opacity:0.539" fill="#0e0a0b" d="M 399.5,248.5 C 399.66,250.153 400.326,251.486 401.5,252.5C 406.315,273.821 397.982,284.655 376.5,285C 370.813,284.501 366.48,282.001 363.5,277.5C 373.788,285.113 384.288,285.446 395,278.5C 402.691,269.26 403.358,259.26 397,248.5C 393.873,245.57 390.706,243.403 387.5,242C 382.465,241.616 377.632,241.449 373,241.5C 371.491,243.919 369.325,244.919 366.5,244.5C 366.833,243.833 367.167,243.167 367.5,242.5C 369.153,242.34 370.486,241.674 371.5,240.5C 382.596,237.313 391.93,239.98 399.5,248.5 Z"/></g>
<g><path style="opacity:0.004" fill="#000000" d="M 442.5,245.5 C 443.833,246.167 443.833,246.167 442.5,245.5 Z"/></g>
<g><path style="opacity:0.957" fill="#120e0f" d="M 267.5,240.5 C 270.5,240.5 273.5,240.5 276.5,240.5C 276.5,246.5 276.5,252.5 276.5,258.5C 283.167,258.5 289.833,258.5 296.5,258.5C 296.5,252.5 296.5,246.5 296.5,240.5C 299.5,240.5 302.5,240.5 305.5,240.5C 305.5,255.167 305.5,269.833 305.5,284.5C 302.5,284.5 299.5,284.5 296.5,284.5C 296.5,278.833 296.5,273.167 296.5,267.5C 297.325,271.647 297.825,275.981 298,280.5C 299.401,282.192 301.234,282.859 303.5,282.5C 303.15,269.642 303.15,256.309 303.5,242.5C 300.955,242.151 298.955,242.984 297.5,245C 298.167,249 298.833,253 299.5,257C 297.005,260.968 294.005,261.802 290.5,259.5C 285.481,260.086 280.815,260.419 276.5,260.5C 275.618,259.24 274.618,258.074 273.5,257C 274.255,252.47 274.588,247.636 274.5,242.5C 272.396,242.201 270.396,242.534 268.5,243.5C 268.546,256.321 268.546,269.321 268.5,282.5C 267.504,268.677 267.171,254.677 267.5,240.5 Z"/></g>
<g><path style="opacity:0.004" fill="#000000" d="M 294.5,240.5 C 295.833,241.167 295.833,241.167 294.5,240.5 Z"/></g>
<g><path style="opacity:0.004" fill="#000000" d="M 399.5,247.5 C 400.833,248.167 400.833,248.167 399.5,247.5 Z"/></g>
<g><path style="opacity:0.561" fill="#0f0b0c" d="M 434.5,240.5 C 437.93,241.542 440.597,243.542 442.5,246.5C 442.631,247.239 442.464,247.906 442,248.5C 440.348,249.399 438.848,250.399 437.5,251.5C 435.486,251.608 433.82,250.942 432.5,249.5C 430.538,247.983 428.205,247.316 425.5,247.5C 423.631,247.507 421.964,247.84 420.5,248.5C 419.167,248.5 418.5,249.167 418.5,250.5C 417.167,251.5 417.167,252.5 418.5,253.5C 418.5,254.167 418.833,254.5 419.5,254.5C 420.777,255.898 422.443,256.564 424.5,256.5C 427.154,255.732 429.821,255.566 432.5,256C 427.459,257.008 427.792,257.508 433.5,257.5C 434.189,258.774 435.023,258.774 436,257.5C 438.011,259.678 440.177,261.678 442.5,263.5C 442.5,264.167 442.5,264.833 442.5,265.5C 440.436,265.238 439.103,264.071 438.5,262C 435.792,260.931 433.125,259.764 430.5,258.5C 426.061,259.12 421.727,258.287 417.5,256C 416.426,255.261 415.759,254.261 415.5,253C 416.424,251.85 416.424,250.85 415.5,250C 417.638,247.629 420.138,245.796 423,244.5C 425.944,245.257 428.944,245.923 432,246.5C 434.551,250.331 437.384,250.498 440.5,247C 438.584,244.591 436.584,242.424 434.5,240.5 Z M 420.5,248.5 C 420.167,249.5 419.5,250.167 418.5,250.5C 418.5,249.167 419.167,248.5 420.5,248.5 Z"/></g>
<g><path style="opacity:0.008" fill="#000000" d="M 312.5,249.5 C 311.833,248.167 311.833,248.167 312.5,249.5 Z"/></g>
<g><path style="opacity:0.009" fill="#000000" d="M 420.5,248.5 C 421.552,248.351 422.552,248.517 423.5,249C 419.959,250.071 419.292,251.737 421.5,254C 420.906,254.464 420.239,254.631 419.5,254.5C 418.833,254.5 418.5,254.167 418.5,253.5C 418.5,252.5 418.5,251.5 418.5,250.5C 419.5,250.167 420.167,249.5 420.5,248.5 Z"/></g>
<g><path style="opacity:0.006" fill="#000000" d="M 110.5,249.5 C 111.613,250.946 111.78,252.613 111,254.5C 109.964,252.701 109.797,251.034 110.5,249.5 Z"/></g>
<g><path style="opacity:0.004" fill="#000000" d="M 352.5,249.5 C 353.833,250.167 353.833,250.167 352.5,249.5 Z"/></g>
<g><path style="opacity:0.004" fill="#000000" d="M 432.5,249.5 C 431.833,250.167 431.833,250.167 432.5,249.5 Z"/></g>
<g><path style="opacity:0.004" fill="#000000" d="M 311.5,251.5 C 310.833,250.167 310.833,250.167 311.5,251.5 Z"/></g>
<g><path style="opacity:0.008" fill="#000000" d="M 459.5,250.5 C 466.508,250.334 473.508,250.5 480.5,251C 473.842,251.5 467.175,251.666 460.5,251.5C 460.807,253.446 460.807,255.113 460.5,256.5C 459.534,254.604 459.201,252.604 459.5,250.5 Z"/></g>
<g><path style="opacity:0.004" fill="#000000" d="M 402.5,252.5 C 401.833,251.167 401.833,251.167 402.5,252.5 Z"/></g>
<g><path style="opacity:0.004" fill="#000000" d="M 437.5,251.5 C 438.833,252.167 438.833,252.167 437.5,251.5 Z"/></g>
<g><path style="opacity:0.004" fill="#000000" d="M 105.5,252.5 C 106.833,253.167 106.833,253.167 105.5,252.5 Z"/></g>
<g><path style="opacity:0.004" fill="#000000" d="M 357.5,252.5 C 358.833,253.167 358.833,253.167 357.5,252.5 Z"/></g>
<g><path style="opacity:0.004" fill="#000000" d="M 402.5,252.5 C 403.525,252.897 403.692,253.563 403,254.5C 402.536,253.906 402.369,253.239 402.5,252.5 Z"/></g>
<g><path style="opacity:0.004" fill="#000000" d="M 423.5,254.5 C 424.833,255.167 424.833,255.167 423.5,254.5 Z"/></g>
<g><path style="opacity:0.004" fill="#000000" d="M 53.5,255.5 C 54.8333,256.167 54.8333,256.167 53.5,255.5 Z"/></g>
<g><path style="opacity:0.006" fill="#000000" d="M 223.5,257.5 C 222.475,257.103 222.308,256.437 223,255.5C 223.464,256.094 223.631,256.761 223.5,257.5 Z"/></g>
<g><path style="opacity:0.004" fill="#000000" d="M 306.5,255.5 C 307.833,256.167 307.833,256.167 306.5,255.5 Z"/></g>
<g><path style="opacity:0.007" fill="#000000" d="M 355.5,255.5 C 357.441,256.638 357.608,258.304 356,260.5C 355.506,258.866 355.34,257.199 355.5,255.5 Z"/></g>
<g><path style="opacity:0.004" fill="#000000" d="M 472.5,256.5 C 473.601,255.402 474.934,255.235 476.5,256C 475.207,256.49 473.873,256.657 472.5,256.5 Z"/></g>
<g><path style="opacity:0.004" fill="#000000" d="M 479.5,255.5 C 480.833,256.167 480.833,256.167 479.5,255.5 Z"/></g>
<g><path style="opacity:0.008" fill="#000000" d="M 403.5,256.5 C 404.613,257.946 404.78,259.613 404,261.5C 403.506,259.866 403.34,258.199 403.5,256.5 Z"/></g>
<g><path style="opacity:0.008" fill="#000000" d="M 433.5,256.5 C 434.833,257.167 434.833,257.167 433.5,256.5 Z"/></g>
<g><path style="opacity:0.008" fill="#000000" d="M 53.5,259.5 C 52.8333,258.167 52.8333,258.167 53.5,259.5 Z"/></g>
<g><path style="opacity:0.004" fill="#000000" d="M 306.5,259.5 C 307.525,259.897 307.692,260.563 307,261.5C 306.536,260.906 306.369,260.239 306.5,259.5 Z"/></g>
<g><path style="opacity:0.639" fill="#0e0a0c" d="M 258.5,250.5 C 258.631,251.376 258.298,252.043 257.5,252.5C 250.299,247.201 243.132,247.201 236,252.5C 229.997,266.12 233.497,274.12 246.5,276.5C 248.512,276.16 250.512,275.827 252.5,275.5C 251.126,277.378 249.126,278.378 246.5,278.5C 240.354,278.514 235.854,275.847 233,270.5C 227.913,259.522 231.08,251.689 242.5,247C 245.167,246.333 247.833,246.333 250.5,247C 253.064,248.396 255.731,249.563 258.5,250.5 Z"/></g>
<g><path style="opacity:1" fill="#221e1f" d="M 258.5,250.5 C 255.731,249.563 253.064,248.396 250.5,247C 247.833,246.333 245.167,246.333 242.5,247C 231.08,251.689 227.913,259.522 233,270.5C 235.854,275.847 240.354,278.514 246.5,278.5C 249.126,278.378 251.126,277.378 252.5,275.5C 254.136,276.246 255.803,275.912 257.5,274.5C 260.279,275.673 260.946,277.507 259.5,280C 251.448,284.168 243.448,284.502 235.5,281C 222.665,270.223 221.665,258.223 232.5,245C 233.993,243.632 235.493,243.465 237,244.5C 237.903,243.299 239.069,242.465 240.5,242C 248.046,240.331 254.712,241.831 260.5,246.5C 259.37,247.622 258.703,248.956 258.5,250.5 Z"/></g>
<g><path style="opacity:0.739" fill="#0d0a0b" d="M 341.5,240.5 C 341.842,241.338 342.508,241.672 343.5,241.5C 343.842,242.338 344.508,242.672 345.5,242.5C 347.862,245.192 350.196,247.859 352.5,250.5C 354.252,256.681 354.919,263.014 354.5,269.5C 353.596,270.209 353.263,271.209 353.5,272.5C 352.18,274.463 350.846,276.463 349.5,278.5C 348.5,278.833 347.833,279.5 347.5,280.5C 346.29,280.932 345.29,281.599 344.5,282.5C 336.102,286.577 327.769,286.41 319.5,282C 318.29,280.961 317.29,279.794 316.5,278.5C 315.5,277.833 314.5,277.167 313.5,276.5C 309.123,268.482 308.457,260.148 311.5,251.5C 312.338,251.158 312.672,250.492 312.5,249.5C 320.083,240.308 329.75,237.308 341.5,240.5 Z M 325.5,274.5 C 322.724,272.967 320.89,270.634 320,267.5C 319.333,263.833 319.333,260.167 320,256.5C 320.608,254.934 321.442,253.6 322.5,252.5C 323.327,253.439 323.994,253.105 324.5,251.5C 329.87,247.683 335.537,247.516 341.5,251C 347.376,259.574 346.709,267.574 339.5,275C 334.62,277.13 329.953,276.963 325.5,274.5 Z"/></g>
<g><path style="opacity:0.007" fill="#000000" d="M 355.5,269.5 C 355.336,266.813 355.503,264.146 356,261.5C 356.226,264.095 356.726,266.595 357.5,269C 356.906,269.464 356.239,269.631 355.5,269.5 Z"/></g>
<g><path style="opacity:0.176" fill="#0c0809" d="M 366.5,244.5 C 358.285,254.743 357.285,265.743 363.5,277.5C 361.806,276.473 360.473,275.139 359.5,273.5C 356.525,265.292 357.025,257.292 361,249.5C 362.426,247.234 364.26,245.568 366.5,244.5 Z"/></g>
<g><path style="opacity:1" fill="#211e1f" d="M 433.5,240.5 C 433.833,240.5 434.167,240.5 434.5,240.5C 436.584,242.424 438.584,244.591 440.5,247C 437.384,250.498 434.551,250.331 432,246.5C 428.944,245.923 425.944,245.257 423,244.5C 420.138,245.796 417.638,247.629 415.5,250C 416.424,250.85 416.424,251.85 415.5,253C 415.759,254.261 416.426,255.261 417.5,256C 421.727,258.287 426.061,259.12 430.5,258.5C 433.125,259.764 435.792,260.931 438.5,262C 439.103,264.071 440.436,265.238 442.5,265.5C 442.432,267.935 442.432,270.435 442.5,273C 441.167,278.333 437.833,281.667 432.5,283C 429.179,283.209 426.012,283.376 423,283.5C 416.411,283.436 411.578,280.603 408.5,275C 409.966,274.365 411.3,273.531 412.5,272.5C 413.417,273.127 414.417,273.461 415.5,273.5C 415.795,275.423 416.628,277.09 418,278.5C 422.394,278.439 426.728,278.439 431,278.5C 437.015,275.284 437.848,271.117 433.5,266C 426.699,264.245 420.032,262.245 413.5,260C 409.229,254.036 409.562,248.369 414.5,243C 415.766,242.691 416.933,242.191 418,241.5C 419,241.833 420,242.167 421,242.5C 421.5,242 422,241.5 422.5,241C 426.464,240.641 430.131,240.474 433.5,240.5 Z"/></g>
<g><path style="opacity:0.007" fill="#000000" d="M 403.5,262.5 C 404.622,264.288 404.789,266.288 404,268.5C 403.505,266.527 403.338,264.527 403.5,262.5 Z"/></g>
<g><path style="opacity:0.012" fill="#000000" d="M 442.5,262.5 C 443.833,263.167 443.833,263.167 442.5,262.5 Z"/></g>
<g><path style="opacity:0.008" fill="#000000" d="M 306.5,263.5 C 307.833,264.167 307.833,264.167 306.5,263.5 Z"/></g>
<g><path style="opacity:0.007" fill="#000000" d="M 164.5,265.5 C 165.573,266.251 165.74,267.251 165,268.5C 164.517,267.552 164.351,266.552 164.5,265.5 Z"/></g>
<g><path style="opacity:0.004" fill="#000000" d="M 306.5,265.5 C 307.629,267.628 307.796,269.961 307,272.5C 306.503,270.19 306.337,267.857 306.5,265.5 Z"/></g>
<g><path style="opacity:0.004" fill="#000000" d="M 424.5,266.5 C 425.833,267.167 425.833,267.167 424.5,266.5 Z"/></g>
<g><path style="opacity:0.008" fill="#000000" d="M 223.5,267.5 C 223.631,268.239 223.464,268.906 223,269.5C 222.308,268.563 222.475,267.897 223.5,267.5 Z"/></g>
<g><path style="opacity:0.004" fill="#000000" d="M 308.5,267.5 C 309.525,267.897 309.692,268.563 309,269.5C 308.536,268.906 308.369,268.239 308.5,267.5 Z"/></g>
<g><path style="opacity:0.006" fill="#000000" d="M 429.5,267.5 C 430.167,267.5 430.833,267.5 431.5,267.5C 430.833,268.833 430.167,268.833 429.5,267.5 Z"/></g>
<g><path style="opacity:0.013" fill="#000000" d="M 459.5,267.5 C 466.175,267.334 472.842,267.5 479.5,268C 473.175,268.5 466.842,268.666 460.5,268.5C 460.807,270.446 460.807,272.113 460.5,273.5C 459.534,271.604 459.201,269.604 459.5,267.5 Z"/></g>
<g><path style="opacity:0.008" fill="#000000" d="M 354.5,269.5 C 354.833,269.5 355.167,269.5 355.5,269.5C 355.167,272.167 354.833,272.167 354.5,269.5 Z"/></g>
<g><path style="opacity:0.374" fill="#100d0e" d="M 421.5,238.5 C 424.167,238.5 426.833,238.5 429.5,238.5C 430.833,239.167 432.167,239.833 433.5,240.5C 430.131,240.474 426.464,240.641 422.5,241C 422,241.5 421.5,242 421,242.5C 420,242.167 419,241.833 418,241.5C 416.933,242.191 415.766,242.691 414.5,243C 409.562,248.369 409.229,254.036 413.5,260C 420.032,262.245 426.699,264.245 433.5,266C 437.848,271.117 437.015,275.284 431,278.5C 426.728,278.439 422.394,278.439 418,278.5C 416.628,277.09 415.795,275.423 415.5,273.5C 420.301,276.477 425.301,277.144 430.5,275.5C 434.146,274.538 435.313,272.205 434,268.5C 433.329,267.748 432.496,267.414 431.5,267.5C 430.833,266.167 430.167,266.167 429.5,267.5C 426.402,267.587 426.068,267.087 428.5,266C 421.209,266.087 415.043,263.587 410,258.5C 407.453,252.558 408.287,247.225 412.5,242.5C 415.456,240.851 418.456,239.517 421.5,238.5 Z"/></g>
<g><path style="opacity:1" fill="#211d1e" d="M 296.5,267.5 C 295.159,265.88 293.326,264.88 291,264.5C 285.808,265.653 280.308,265.82 274.5,265C 274.833,265.333 275.167,265.667 275.5,266C 274.854,271.448 274.188,276.948 273.5,282.5C 271.997,283.052 270.331,283.052 268.5,282.5C 268.546,269.321 268.546,256.321 268.5,243.5C 270.396,242.534 272.396,242.201 274.5,242.5C 274.588,247.636 274.255,252.47 273.5,257C 274.618,258.074 275.618,259.24 276.5,260.5C 280.815,260.419 285.481,260.086 290.5,259.5C 294.005,261.802 297.005,260.968 299.5,257C 298.833,253 298.167,249 297.5,245C 298.955,242.984 300.955,242.151 303.5,242.5C 303.15,256.309 303.15,269.642 303.5,282.5C 301.234,282.859 299.401,282.192 298,280.5C 297.825,275.981 297.325,271.647 296.5,267.5 Z"/></g>
<g><path style="opacity:0.011" fill="#000000" d="M 277.5,254.5 C 278.309,255.469 279.309,256.302 280.5,257C 279.552,257.483 278.552,257.649 277.5,257.5C 277.5,256.5 277.5,255.5 277.5,254.5 Z"/></g>
<g><path style="opacity:0.007" fill="#000000" d="M 294.5,249.5 C 295.473,251.948 295.806,254.615 295.5,257.5C 294.448,257.649 293.448,257.483 292.5,257C 294.291,254.894 294.958,252.394 294.5,249.5 Z"/></g>
<g><path style="opacity:0.006" fill="#000000" d="M 294.5,242.5 C 295.598,243.601 295.765,244.934 295,246.5C 294.51,245.207 294.343,243.873 294.5,242.5 Z"/></g>
<g><path style="opacity:0.008" fill="#000000" d="M 402.5,270.5 C 403.833,271.167 403.833,271.167 402.5,270.5 Z"/></g>
<g><path style="opacity:0.004" fill="#000000" d="M 256.5,272.5 C 255.833,271.167 255.833,271.167 256.5,272.5 Z"/></g>
<g><path style="opacity:0.008" fill="#000000" d="M 258.5,271.5 C 259.833,272.167 259.833,272.167 258.5,271.5 Z"/></g>
<g><path style="opacity:1" fill="#211e1f" d="M 316.5,278.5 C 309.718,267.674 309.884,257.008 317,246.5C 326.072,240.366 335.572,239.866 345.5,245C 356.779,258.327 355.779,270.66 342.5,282C 340.559,282.743 338.726,282.576 337,281.5C 335.006,282.664 332.839,283.331 330.5,283.5C 328.796,282.932 327.296,282.932 326,283.5C 322.89,281.695 319.723,280.029 316.5,278.5 Z M 325.5,274.5 C 322.724,272.967 320.89,270.634 320,267.5C 319.333,263.833 319.333,260.167 320,256.5C 320.608,254.934 321.442,253.6 322.5,252.5C 323.327,253.439 323.994,253.105 324.5,251.5C 329.87,247.683 335.537,247.516 341.5,251C 347.376,259.574 346.709,267.574 339.5,275C 334.62,277.13 329.953,276.963 325.5,274.5 Z"/></g>
<g><path style="opacity:0.29" fill="#0e0b0d" d="M 327.5,246.5 C 339.495,244.602 346.161,249.602 347.5,261.5C 347.967,266.583 346.3,271.083 342.5,275C 340.099,275.795 337.932,276.962 336,278.5C 332.755,278.255 329.422,278.255 326,278.5C 322.791,275.771 320.291,272.437 318.5,268.5C 315.113,258.309 318.113,250.975 327.5,246.5 Z M 325.5,274.5 C 322.724,272.967 320.89,270.634 320,267.5C 319.333,263.833 319.333,260.167 320,256.5C 320.608,254.934 321.442,253.6 322.5,252.5C 323.327,253.439 323.994,253.105 324.5,251.5C 329.87,247.683 335.537,247.516 341.5,251C 347.376,259.574 346.709,267.574 339.5,275C 334.62,277.13 329.953,276.963 325.5,274.5 Z"/></g>
<g><path style="opacity:0.004" fill="#000000" d="M 357.5,271.5 C 358.833,272.167 358.833,272.167 357.5,271.5 Z"/></g>
<g><path style="opacity:0.004" fill="#000000" d="M 353.5,272.5 C 354.833,273.167 354.833,273.167 353.5,272.5 Z"/></g>
<g><path style="opacity:0.004" fill="#000000" d="M 165.5,273.5 C 166.833,274.167 166.833,274.167 165.5,273.5 Z"/></g>
<g><path style="opacity:0.004" fill="#000000" d="M 252.5,274.5 C 251.833,273.167 251.833,273.167 252.5,274.5 Z"/></g>
<g><path style="opacity:0.008" fill="#000000" d="M 359.5,273.5 C 358.833,274.167 358.833,274.167 359.5,273.5 Z"/></g>
<g><path style="opacity:0.004" fill="#000000" d="M 264.5,277.5 C 264.167,277.5 263.833,277.5 263.5,277.5C 263.461,276.244 263.961,275.244 265,274.5C 265.47,275.577 265.303,276.577 264.5,277.5 Z"/></g>
<g><path style="opacity:0.004" fill="#000000" d="M 165.5,276.5 C 166.833,277.167 166.833,277.167 165.5,276.5 Z"/></g>
<g><path style="opacity:0.247" fill="#090607" d="M 267.5,240.5 C 267.171,254.677 267.504,268.677 268.5,282.5C 270.331,283.052 271.997,283.052 273.5,282.5C 274.188,276.948 274.854,271.448 275.5,266C 275.167,265.667 274.833,265.333 274.5,265C 280.308,265.82 285.808,265.653 291,264.5C 293.326,264.88 295.159,265.88 296.5,267.5C 295.761,267.369 295.094,267.536 294.5,268C 295.615,272.171 295.282,272.338 293.5,268.5C 288.533,267.338 283.533,267.171 278.5,268C 279.28,269.073 279.113,270.24 278,271.5C 277.667,270.167 277.333,268.833 277,267.5C 276.501,273.157 276.334,278.824 276.5,284.5C 273.167,284.5 269.833,284.5 266.5,284.5C 266.171,269.657 266.504,254.99 267.5,240.5 Z"/></g>
<g><path style="opacity:0.012" fill="#000000" d="M 313.5,276.5 C 312.833,277.167 312.833,277.167 313.5,276.5 Z"/></g>
<g><path style="opacity:0.004" fill="#000000" d="M 264.5,277.5 C 265.833,278.167 265.833,278.167 264.5,277.5 Z"/></g>
<g><path style="opacity:0.004" fill="#000000" d="M 294.5,277.5 C 295.833,278.167 295.833,278.167 294.5,277.5 Z"/></g>
<g><path style="opacity:0.004" fill="#000000" d="M 349.5,278.5 C 350.833,279.167 350.833,279.167 349.5,278.5 Z"/></g>
<g><path style="opacity:0.016" fill="#000000" d="M 442.5,278.5 C 442.833,278.5 443.167,278.5 443.5,278.5C 443.315,279.17 442.981,279.17 442.5,278.5 Z"/></g>
<g><path style="opacity:0.007" fill="#000000" d="M 294.5,279.5 C 295.573,280.251 295.74,281.251 295,282.5C 294.517,281.552 294.351,280.552 294.5,279.5 Z"/></g>
<g><path style="opacity:1" fill="#221e1f" d="M 363.5,277.5 C 357.285,265.743 358.285,254.743 366.5,244.5C 369.325,244.919 371.491,243.919 373,241.5C 377.632,241.449 382.465,241.616 387.5,242C 390.706,243.403 393.873,245.57 397,248.5C 403.358,259.26 402.691,269.26 395,278.5C 384.288,285.446 373.788,285.113 363.5,277.5 Z M 373.5,274.5 C 371.5,273.833 370.167,272.5 369.5,270.5C 365.963,265.055 365.963,259.722 369.5,254.5C 369.328,253.508 369.662,252.842 370.5,252.5C 371.327,253.439 371.994,253.105 372.5,251.5C 373.529,250.874 374.529,250.041 375.5,249C 389.541,247.197 395.374,253.364 393,267.5C 388.687,276.25 382.187,278.583 373.5,274.5 Z"/></g>
<g><path style="opacity:0.98" fill="#0e0b0c" d="M 373.5,246.5 C 389.262,244.427 396.429,251.427 395,267.5C 389.277,278.263 381.11,280.93 370.5,275.5C 363.044,264.826 364.044,255.159 373.5,246.5 Z M 373.5,274.5 C 371.5,273.833 370.167,272.5 369.5,270.5C 365.963,265.055 365.963,259.722 369.5,254.5C 369.328,253.508 369.662,252.842 370.5,252.5C 371.327,253.439 371.994,253.105 372.5,251.5C 373.529,250.874 374.529,250.041 375.5,249C 389.541,247.197 395.374,253.364 393,267.5C 388.687,276.25 382.187,278.583 373.5,274.5 Z"/></g>
<g><path style="opacity:0.012" fill="#000000" d="M 441.5,279.5 C 441.833,279.5 442.167,279.5 442.5,279.5C 442.315,280.17 441.981,280.17 441.5,279.5 Z"/></g>
<g><path style="opacity:1" fill="#211e1f" d="M 451.5,241.5 C 452.222,241.918 452.722,242.584 453,243.5C 462.089,242.35 471.255,242.183 480.5,243C 480.966,244.299 480.966,245.799 480.5,247.5C 472.826,247.334 465.159,247.5 457.5,248C 456.833,251.333 456.167,254.667 455.5,258C 456.354,259.022 457.354,259.855 458.5,260.5C 460.709,259.894 462.876,259.227 465,258.5C 469.929,258.674 474.762,259.007 479.5,259.5C 479.5,261.167 479.5,262.833 479.5,264.5C 471.826,264.334 464.159,264.5 456.5,265C 456.694,268.43 456.694,271.93 456.5,275.5C 457.242,276.287 458.075,276.953 459,277.5C 465.255,276.498 471.755,276.164 478.5,276.5C 480.283,278.023 480.949,280.023 480.5,282.5C 470.34,282.354 460.34,282.354 450.5,282.5C 450.247,268.539 450.581,254.872 451.5,241.5 Z"/></g>
<g><path style="opacity:0.004" fill="#000000" d="M 262.5,280.5 C 263.833,281.167 263.833,281.167 262.5,280.5 Z"/></g>
<g><path style="opacity:0.008" fill="#000000" d="M 347.5,280.5 C 348.833,281.167 348.833,281.167 347.5,280.5 Z"/></g>
<g><path style="opacity:0.604" fill="#0e0b0c" d="M 442.5,265.5 C 443.222,265.918 443.722,266.584 444,267.5C 444.556,265.405 445.056,265.238 445.5,267C 444.167,270 444.167,273 445.5,276C 445.361,277.301 444.695,278.134 443.5,278.5C 443.167,277.167 442.833,277.167 442.5,278.5C 441.833,278.5 441.5,278.833 441.5,279.5C 440.167,280.167 439.167,281.167 438.5,282.5C 429.828,286.499 421.161,286.499 412.5,282.5C 409.561,280.658 407.561,277.991 406.5,274.5C 408.228,272.548 410.395,271.215 413,270.5C 414.749,270.748 415.582,271.748 415.5,273.5C 414.417,273.461 413.417,273.127 412.5,272.5C 411.3,273.531 409.966,274.365 408.5,275C 411.578,280.603 416.411,283.436 423,283.5C 426.012,283.376 429.179,283.209 432.5,283C 437.833,281.667 441.167,278.333 442.5,273C 442.432,270.435 442.432,267.935 442.5,265.5 Z"/></g>
<g><path style="opacity:0.004" fill="#000000" d="M 430.5,275.5 C 429.833,274.167 429.833,274.167 430.5,275.5 Z"/></g>
<g><path style="opacity:0.004" fill="#000000" d="M 232.5,281.5 C 231.833,282.167 231.833,282.167 232.5,281.5 Z"/></g>
<g><path style="opacity:0.008" fill="#000000" d="M 111.5,282.5 C 112.525,282.897 112.692,283.563 112,284.5C 111.536,283.906 111.369,283.239 111.5,282.5 Z"/></g>
<g><path style="opacity:0.004" fill="#000000" d="M 259.5,282.5 C 260.833,283.167 260.833,283.167 259.5,282.5 Z"/></g>
<g><path style="opacity:0.004" fill="#000000" d="M 344.5,282.5 C 345.833,283.167 345.833,283.167 344.5,282.5 Z"/></g>
<g><path style="opacity:0.008" fill="#000000" d="M 412.5,282.5 C 411.833,283.167 411.833,283.167 412.5,282.5 Z"/></g>
<g><path style="opacity:0.008" fill="#000000" d="M 438.5,282.5 C 439.833,283.167 439.833,283.167 438.5,282.5 Z"/></g>
<g><path style="opacity:0.006" fill="#000000" d="M 51.5,283.5 C 51.631,284.239 51.4643,284.906 51,285.5C 50.3083,284.563 50.475,283.897 51.5,283.5 Z"/></g>
<g><path style="opacity:0.008" fill="#000000" d="M 51.5,290.5 C 52.525,290.897 52.6917,291.563 52,292.5C 51.5357,291.906 51.369,291.239 51.5,290.5 Z"/></g>
<g><path style="opacity:0.004" fill="#000000" d="M 52.5,295.5 C 53.8333,296.167 53.8333,296.167 52.5,295.5 Z"/></g>
<g><path style="opacity:0.004" fill="#000000" d="M 234.5,298.5 C 233.833,297.167 233.833,297.167 234.5,298.5 Z"/></g>
<g><path style="opacity:0.004" fill="#000000" d="M 307.5,297.5 C 308.833,298.167 308.833,298.167 307.5,297.5 Z"/></g>
<g><path style="opacity:0.007" fill="#000000" d="M 233.5,298.5 C 233.657,299.873 233.49,301.207 233,302.5C 232.235,300.934 232.402,299.601 233.5,298.5 Z"/></g>
<g><path style="opacity:0.703" fill="#0f0b0c" d="M 273.5,326.5 C 273.167,326.5 272.833,326.5 272.5,326.5C 271.86,317.891 271.193,309.225 270.5,300.5C 268.958,299.253 267.458,299.253 266,300.5C 265.819,309.744 265.319,318.911 264.5,328C 261.603,335.822 255.936,337.989 247.5,334.5C 246.702,334.043 246.369,333.376 246.5,332.5C 252.183,335.58 257.349,334.913 262,330.5C 263.453,319.937 263.953,309.27 263.5,298.5C 266.833,298.5 270.167,298.5 273.5,298.5C 273.5,307.833 273.5,317.167 273.5,326.5 Z"/></g>
<g><path style="opacity:0.004" fill="#000000" d="M 54.5,299.5 C 54.631,300.239 54.4643,300.906 54,301.5C 53.3083,300.563 53.475,299.897 54.5,299.5 Z"/></g>
<g><path style="opacity:0.004" fill="#000000" d="M 168.5,300.5 C 169.525,300.897 169.692,301.563 169,302.5C 168.536,301.906 168.369,301.239 168.5,300.5 Z"/></g>
<g><path style="opacity:0.004" fill="#000000" d="M 55.5,303.5 C 54.8333,304.167 54.8333,304.167 55.5,303.5 Z"/></g>
<g><path style="opacity:0.004" fill="#000000" d="M 319.5,305.5 C 318.833,304.167 318.833,304.167 319.5,305.5 Z"/></g>
<g><path style="opacity:0.004" fill="#000000" d="M 170.5,306.5 C 169.833,307.167 169.833,307.167 170.5,306.5 Z"/></g>
<g><path style="opacity:0.012" fill="#000000" d="M 313.5,306.5 C 314.833,307.167 314.833,307.167 313.5,306.5 Z"/></g>
<g><path style="opacity:0.004" fill="#000000" d="M 317.5,306.5 C 318.833,307.167 318.833,307.167 317.5,306.5 Z"/></g>
<g><path style="opacity:0.004" fill="#000000" d="M 55.5,307.5 C 56.525,307.897 56.6917,308.563 56,309.5C 55.5357,308.906 55.369,308.239 55.5,307.5 Z"/></g>
<g><path style="opacity:0.004" fill="#000000" d="M 312.5,307.5 C 312.833,307.5 313.167,307.5 313.5,307.5C 313.315,308.17 312.981,308.17 312.5,307.5 Z"/></g>
<g><path style="opacity:0.004" fill="#000000" d="M 310.5,308.5 C 311.833,309.167 311.833,309.167 310.5,308.5 Z"/></g>
<g><path style="opacity:0.005" fill="#000000" d="M 353.5,308.5 C 354.598,309.601 354.765,310.934 354,312.5C 353.51,311.207 353.343,309.873 353.5,308.5 Z"/></g>
<g><path style="opacity:0.004" fill="#000000" d="M 170.5,310.5 C 169.833,309.167 169.833,309.167 170.5,310.5 Z"/></g>
<g><path style="opacity:0.004" fill="#000000" d="M 308.5,309.5 C 309.833,310.167 309.833,310.167 308.5,309.5 Z"/></g>
<g><path style="opacity:0.008" fill="#000000" d="M 57.5,310.5 C 56.8333,311.167 56.8333,311.167 57.5,310.5 Z"/></g>
<g><path style="opacity:0.008" fill="#000000" d="M 306.5,310.5 C 307.833,311.167 307.833,311.167 306.5,310.5 Z"/></g>
<g><path style="opacity:0.006" fill="#000000" d="M 169.5,313.5 C 168.475,313.103 168.308,312.437 169,311.5C 169.464,312.094 169.631,312.761 169.5,313.5 Z"/></g>
<g><path style="opacity:0.004" fill="#000000" d="M 301.5,313.5 C 302.833,314.167 302.833,314.167 301.5,313.5 Z"/></g>
<g><path style="opacity:0.004" fill="#000000" d="M 337.5,313.5 C 338.833,314.167 338.833,314.167 337.5,313.5 Z"/></g>
<g><path style="opacity:0.624" fill="#0d0a0b" d="M 307.5,298.5 C 310.615,300.288 312.615,302.954 313.5,306.5C 312.833,306.5 312.5,306.833 312.5,307.5C 311.508,307.328 310.842,307.662 310.5,308.5C 309.508,308.328 308.842,308.662 308.5,309.5C 307.041,309.567 305.708,309.234 304.5,308.5C 304.027,307.094 303.027,306.427 301.5,306.5C 298.36,305.359 295.027,305.192 291.5,306C 292.167,306.333 292.833,306.667 293.5,307C 291.588,308.2 290.255,309.867 289.5,312C 295.257,314.242 301.257,315.742 307.5,316.5C 310.213,318.214 312.213,320.547 313.5,323.5C 316.106,328.221 315.773,332.887 312.5,337.5C 311.833,337.5 311.5,337.833 311.5,338.5C 301.687,344.969 291.687,345.136 281.5,339C 275.351,332.634 276.684,329.301 285.5,329C 288.039,332.936 291.705,334.769 296.5,334.5C 302.883,335.268 305.717,332.601 305,326.5C 302.758,327.175 300.591,326.675 298.5,325C 298.833,324.667 299.167,324.333 299.5,324C 294.371,323.301 289.371,322.134 284.5,320.5C 278.679,314.604 278.012,308.104 282.5,301C 290.388,296.078 298.722,295.244 307.5,298.5 Z"/></g>
<g><path style="opacity:0.004" fill="#000000" d="M 304.5,308.5 C 303.833,309.167 303.833,309.167 304.5,308.5 Z"/></g>
<g><path style="opacity:0.008" fill="#000000" d="M 301.5,306.5 C 301.103,307.525 300.437,307.692 299.5,307C 300.094,306.536 300.761,306.369 301.5,306.5 Z"/></g>
<g><path style="opacity:0.004" fill="#000000" d="M 162.5,315.5 C 163.525,315.897 163.692,316.563 163,317.5C 162.536,316.906 162.369,316.239 162.5,315.5 Z"/></g>
<g><path style="opacity:0.004" fill="#000000" d="M 167.5,315.5 C 168.833,316.167 168.833,316.167 167.5,315.5 Z"/></g>
<g><path style="opacity:0.004" fill="#000000" d="M 307.5,315.5 C 308.833,316.167 308.833,316.167 307.5,315.5 Z"/></g>
<g><path style="opacity:0.563" fill="#0d0a0b" d="M 350.5,318.5 C 349.833,318.5 349.5,318.833 349.5,319.5C 347.292,320.023 345.792,321.356 345,323.5C 344.023,322.226 343.189,322.226 342.5,323.5C 341.508,323.328 340.842,323.662 340.5,324.5C 339.662,324.842 339.328,325.508 339.5,326.5C 338.566,327.568 338.232,328.901 338.5,330.5C 335.5,330.5 332.5,330.5 329.5,330.5C 329.089,326.537 329.922,322.87 332,319.5C 335.168,317.248 338.501,315.248 342,313.5C 342.78,311.613 342.613,309.946 341.5,308.5C 341.389,307.883 341.056,307.383 340.5,307C 337.304,306.195 334.304,306.362 331.5,307.5C 328.916,308.048 327.916,309.715 328.5,312.5C 325.167,312.5 321.833,312.5 318.5,312.5C 318.674,310.139 319.007,307.806 319.5,305.5C 323.384,300.224 328.717,297.558 335.5,297.5C 349.723,298.343 354.723,305.343 350.5,318.5 Z"/></g>
<g><path style="opacity:0.01" fill="#000000" d="M 341.5,308.5 C 341.657,309.873 341.49,311.207 341,312.5C 340.235,310.934 340.402,309.601 341.5,308.5 Z"/></g>
<g><path style="opacity:1" fill="#211e1f" d="M 331.5,299.5 C 338.638,298.708 344.971,300.875 350.5,306C 349.167,306.667 349.167,307.333 350.5,308C 349.833,308.333 349.167,308.667 348.5,309C 350.897,311.581 351.063,314.414 349,317.5C 343.195,319.467 338.695,322.967 335.5,328C 334.207,328.49 332.873,328.657 331.5,328.5C 331.278,325.61 331.945,322.943 333.5,320.5C 337.635,318.263 341.635,315.763 345.5,313C 344.846,306.174 341.18,303.508 334.5,305C 330.825,305.165 328.158,306.832 326.5,310C 324.527,310.495 322.527,310.662 320.5,310.5C 321.306,303.835 324.973,300.169 331.5,299.5 Z"/></g>
<g><path style="opacity:0.004" fill="#000000" d="M 330.5,309.5 C 329.833,310.167 329.833,310.167 330.5,309.5 Z"/></g>
<g><path style="opacity:0.004" fill="#000000" d="M 331.5,308.5 C 330.833,309.167 330.833,309.167 331.5,308.5 Z"/></g>
<g><path style="opacity:0.004" fill="#000000" d="M 338.5,307.5 C 339.833,308.167 339.833,308.167 338.5,307.5 Z"/></g>
<g><path style="opacity:0.01" fill="#000000" d="M 331.5,308.5 C 331.5,308.167 331.5,307.833 331.5,307.5C 334.167,307.833 334.167,308.167 331.5,308.5 Z"/></g>
<g><path style="opacity:0.004" fill="#000000" d="M 162.5,318.5 C 163.833,319.167 163.833,319.167 162.5,318.5 Z"/></g>
<g><path style="opacity:0.004" fill="#000000" d="M 166.5,318.5 C 167.525,318.897 167.692,319.563 167,320.5C 166.536,319.906 166.369,319.239 166.5,318.5 Z"/></g>
<g><path style="opacity:0.004" fill="#000000" d="M 350.5,318.5 C 351.833,319.167 351.833,319.167 350.5,318.5 Z"/></g>
<g><path style="opacity:0.004" fill="#000000" d="M 60.5,319.5 C 59.8333,320.167 59.8333,320.167 60.5,319.5 Z"/></g>
<g><path style="opacity:1" fill="#221e1f" d="M 313.5,323.5 C 313.899,327.412 313.399,331.412 312,335.5C 310.833,336.667 309.667,337.833 308.5,339C 300.645,341.723 292.645,341.723 284.5,339C 282.457,337.292 280.79,335.292 279.5,333C 280.672,330.945 282.339,330.278 284.5,331C 291.012,337.292 298.012,338.125 305.5,333.5C 307.339,331.473 307.839,329.14 307,326.5C 303.991,323.093 300.491,321.427 296.5,321.5C 290.531,321.157 285.697,319.157 282,315.5C 279.306,306.729 282.473,301.229 291.5,299C 298.828,297.229 305.161,298.896 310.5,304C 309.91,305.299 308.91,306.132 307.5,306.5C 302.213,304.223 296.713,302.89 291,302.5C 288.153,304.958 286.82,307.958 287,311.5C 287.374,312.416 287.874,313.25 288.5,314C 294.073,315.738 299.74,317.071 305.5,318C 308.047,320.054 310.714,321.887 313.5,323.5 Z"/></g>
<g><path style="opacity:0.004" fill="#000000" d="M 349.5,319.5 C 349.833,319.5 350.167,319.5 350.5,319.5C 350.315,320.17 349.981,320.17 349.5,319.5 Z"/></g>
<g><path style="opacity:0.012" fill="#000000" d="M 284.5,320.5 C 283.833,321.167 283.833,321.167 284.5,320.5 Z"/></g>
<g><path style="opacity:0.008" fill="#000000" d="M 60.5,322.5 C 59.8333,321.167 59.8333,321.167 60.5,322.5 Z"/></g>
<g><path style="opacity:0.016" fill="#000000" d="M 342.5,323.5 C 343.833,324.167 343.833,324.167 342.5,323.5 Z"/></g>
<g><path style="opacity:0.012" fill="#000000" d="M 340.5,324.5 C 341.167,324.5 341.833,324.5 342.5,324.5C 342.167,325.5 341.5,326.167 340.5,326.5C 340.5,325.833 340.5,325.167 340.5,324.5 Z"/></g>
<g><path style="opacity:0.005" fill="#000000" d="M 273.5,326.5 C 274.573,327.251 274.74,328.251 274,329.5C 273.517,328.552 273.351,327.552 273.5,326.5 Z"/></g>
<g><path style="opacity:0.004" fill="#000000" d="M 327.5,326.5 C 328.833,327.167 328.833,327.167 327.5,326.5 Z"/></g>
<g><path style="opacity:0.009" fill="#000000" d="M 339.5,326.5 C 339.833,326.5 340.167,326.5 340.5,326.5C 340.167,330.5 339.833,330.5 339.5,326.5 Z"/></g>
<g><path style="opacity:0.004" fill="#000000" d="M 163.5,327.5 C 164.833,328.167 164.833,328.167 163.5,327.5 Z"/></g>
<g><path style="opacity:0.011" fill="#000000" d="M 164.5,329.5 C 165.645,333.311 165.812,337.311 165,341.5C 164.501,337.514 164.334,333.514 164.5,329.5 Z"/></g>
<g><path style="opacity:1" fill="#221e1f" d="M 246.5,332.5 C 246.369,333.376 246.702,334.043 247.5,334.5C 255.936,337.989 261.603,335.822 264.5,328C 265.319,318.911 265.819,309.744 266,300.5C 267.458,299.253 268.958,299.253 270.5,300.5C 271.193,309.225 271.86,317.891 272.5,326.5C 270.962,329.849 269.129,333.182 267,336.5C 265.2,338.317 263.034,339.484 260.5,340C 250.288,343.018 242.455,340.184 237,331.5C 236.5,321.172 236.334,310.839 236.5,300.5C 238.144,300.714 239.644,300.38 241,299.5C 241.206,308.701 241.706,317.868 242.5,327C 242.355,327.772 242.022,328.439 241.5,329C 242.885,330.649 244.551,331.816 246.5,332.5 Z"/></g>
<g><path style="opacity:0.004" fill="#000000" d="M 473.5,330.5 C 474.833,331.167 474.833,331.167 473.5,330.5 Z"/></g>
<g><path style="opacity:0.004" fill="#000000" d="M 272.5,331.5 C 273.833,332.167 273.833,332.167 272.5,331.5 Z"/></g>
<g><path style="opacity:0.82" fill="#010101" d="M 473.5,331.5 C 473.5,334.5 473.5,337.5 473.5,340.5C 433.832,340.667 394.165,340.5 354.5,340C 353.556,337.281 353.223,334.448 353.5,331.5C 393.5,331.5 433.5,331.5 473.5,331.5 Z"/></g>
<g><path style="opacity:0.008" fill="#000000" d="M 271.5,333.5 C 272.833,334.167 272.833,334.167 271.5,333.5 Z"/></g>
<g><path style="opacity:0.4" fill="#0b090a" d="M 329.5,330.5 C 329.783,331.289 330.283,331.956 331,332.5C 332.726,331.424 334.559,331.257 336.5,332C 337.756,332.417 338.423,333.25 338.5,334.5C 335.465,333.266 332.465,333.266 329.5,334.5C 328.646,332.965 328.646,331.632 329.5,330.5 Z"/></g>
<g><path style="opacity:0.255" fill="#0d0a0b" d="M 234.5,298.5 C 237.5,298.5 240.5,298.5 243.5,298.5C 243.334,307.839 243.5,317.173 244,326.5C 244.573,328.641 245.406,330.641 246.5,332.5C 244.551,331.816 242.885,330.649 241.5,329C 242.022,328.439 242.355,327.772 242.5,327C 241.706,317.868 241.206,308.701 241,299.5C 239.644,300.38 238.144,300.714 236.5,300.5C 236.334,310.839 236.5,321.172 237,331.5C 242.455,340.184 250.288,343.018 260.5,340C 263.034,339.484 265.2,338.317 267,336.5C 269.129,333.182 270.962,329.849 272.5,326.5C 272.5,328.167 272.5,329.833 272.5,331.5C 271.662,331.842 271.328,332.508 271.5,333.5C 270.599,334.29 269.932,335.29 269.5,336.5C 268.833,336.5 268.5,336.833 268.5,337.5C 258.741,345.432 248.907,345.432 239,337.5C 237.139,335.112 235.806,332.446 235,329.5C 234.5,319.172 234.334,308.839 234.5,298.5 Z"/></g>
<g><path style="opacity:1" fill="#1f1c1d" d="M 338.5,334.5 C 338.714,336.144 338.38,337.644 337.5,339C 336.069,339.465 334.903,340.299 334,341.5C 332.989,340.663 331.822,340.33 330.5,340.5C 329.053,339.866 328.387,338.699 328.5,337C 328.528,335.93 328.861,335.097 329.5,334.5C 332.465,333.266 335.465,333.266 338.5,334.5 Z"/></g>
<g><path style="opacity:0.007" fill="#000000" d="M 114.5,340.5 C 113.402,339.399 113.235,338.066 114,336.5C 114.49,337.793 114.657,339.127 114.5,340.5 Z"/></g>
<g><path style="opacity:0.008" fill="#000000" d="M 269.5,336.5 C 270.833,337.167 270.833,337.167 269.5,336.5 Z"/></g>
<g><path style="opacity:0.004" fill="#000000" d="M 268.5,337.5 C 268.833,337.5 269.167,337.5 269.5,337.5C 269.315,338.17 268.981,338.17 268.5,337.5 Z"/></g>
<g><path style="opacity:0.008" fill="#000000" d="M 312.5,337.5 C 313.833,338.167 313.833,338.167 312.5,337.5 Z"/></g>
<g><path style="opacity:0.004" fill="#000000" d="M 311.5,338.5 C 311.833,338.5 312.167,338.5 312.5,338.5C 312.315,339.17 311.981,339.17 311.5,338.5 Z"/></g>
<g><path style="opacity:0.619" fill="#0b0b0b" d="M 338.5,334.5 C 340.363,339.026 338.696,341.693 333.5,342.5C 331.962,342.547 330.962,341.88 330.5,340.5C 331.822,340.33 332.989,340.663 334,341.5C 334.903,340.299 336.069,339.465 337.5,339C 338.38,337.644 338.714,336.144 338.5,334.5 Z"/></g>
<g><path style="opacity:0.004" fill="#000000" d="M 59.5,343.5 C 59.8966,342.475 60.5632,342.308 61.5,343C 60.9056,343.464 60.2389,343.631 59.5,343.5 Z"/></g>
<g><path style="opacity:0.004" fill="#000000" d="M 62.5,343.5 C 64.2884,342.378 66.2884,342.211 68.5,343C 66.5273,343.495 64.5273,343.662 62.5,343.5 Z"/></g>
<g><path style="opacity:0.004" fill="#000000" d="M 84.5,343.5 C 86.2884,342.378 88.2884,342.211 90.5,343C 88.5273,343.495 86.5273,343.662 84.5,343.5 Z"/></g>
<g><path style="opacity:0.004" fill="#000000" d="M 118.5,343.5 C 121.64,342.359 124.973,342.192 128.5,343C 125.183,343.498 121.85,343.665 118.5,343.5 Z"/></g>
<g><path style="opacity:0.006" fill="#000000" d="M 142.5,343.5 C 142.897,342.475 143.563,342.308 144.5,343C 143.906,343.464 143.239,343.631 142.5,343.5 Z"/></g>
<g><path style="opacity:0.004" fill="#000000" d="M 188.5,343.5 C 189.946,342.387 191.613,342.22 193.5,343C 191.866,343.494 190.199,343.66 188.5,343.5 Z"/></g>
<g><path style="opacity:0.004" fill="#000000" d="M 204.5,342.5 C 205.833,343.167 205.833,343.167 204.5,342.5 Z"/></g>
</svg>
